<?xml version="1.0" standalone="no"?>
<!DOCTYPE svg PUBLIC "-//W3C//DTD SVG 20010904//EN"
 "http://www.w3.org/TR/2001/REC-SVG-20010904/DTD/svg10.dtd">
<svg version="1.0" xmlns="http://www.w3.org/2000/svg"
 width="700.000000pt" height="700.000000pt" viewBox="0 0 700.000000 700.000000"
 preserveAspectRatio="xMidYMid meet">
<metadata>
Created by potrace 1.11, written by Peter Selinger 2001-2013
</metadata>
<g transform="translate(0.000000,700.000000) scale(0.100000,-0.100000)"
fill="#000000" stroke="none">
<path d="M2461 6818 c-44 -12 -36 -18 14 -9 22 3 36 9 30 12 -5 3 -25 2 -44
-3z"/>
<path d="M2529 6817 c5 -5 19 -7 32 -5 20 3 19 5 -9 9 -20 3 -29 2 -23 -4z"/>
<path d="M2635 6786 c92 -43 151 -118 196 -248 16 -46 27 -67 23 -48 -10 57
-51 148 -89 200 -37 51 -131 120 -162 120 -10 0 5 -11 32 -24z"/>
<path d="M2375 6781 c-32 -20 -57 -43 -91 -83 -19 -23 -39 -61 -32 -64 2 -1
-5 -11 -15 -22 -13 -14 -17 -28 -12 -43 5 -13 3 -19 -3 -15 -13 8 -24 -37 -16
-71 4 -22 3 -25 -6 -13 -9 13 -11 12 -9 -5 1 -11 -1 -28 -6 -38 -4 -10 -5 -37
-2 -59 4 -28 2 -37 -4 -27 -7 11 -9 10 -9 -6 -5 -264 -15 -447 -27 -520 -4
-22 -7 -59 -7 -82 -1 -24 -5 -43 -11 -43 -5 0 -3 -5 5 -10 11 -7 12 -10 2 -10
-10 0 -13 -12 -10 -45 3 -27 1 -46 -6 -49 -7 -3 -6 -5 2 -5 14 -1 17 -31 2
-31 -6 0 -10 -75 -10 -198 1 -110 -2 -206 -6 -215 -4 -11 -1 -17 7 -17 12 0
12 -2 0 -9 -8 -6 -12 -19 -9 -35 3 -15 1 -29 -4 -32 -5 -3 -4 -12 3 -21 10
-11 10 -16 1 -22 -7 -4 -11 -25 -10 -47 0 -23 -3 -47 -7 -54 -5 -8 -4 -11 2
-7 5 3 10 0 10 -8 0 -8 -4 -12 -9 -9 -5 3 -7 -24 -5 -60 2 -36 0 -63 -5 -60
-4 3 -8 0 -8 -5 0 -6 5 -11 10 -11 6 0 10 -5 10 -11 0 -5 -5 -7 -11 -3 -9 5
-10 -6 -7 -39 3 -26 2 -45 -1 -43 -4 3 -8 -5 -8 -17 -2 -17 0 -19 7 -7 8 13
10 12 10 -2 0 -10 -5 -18 -11 -18 -8 0 -10 -22 -6 -72 3 -40 2 -66 -2 -59 -5
8 -10 -33 -11 -95 -2 -171 -4 -185 -42 -264 -63 -132 -139 -391 -163 -550 -3
-19 -7 -46 -10 -60 -2 -14 -7 -50 -10 -80 -3 -30 -8 -66 -10 -80 -25 -144 -26
-527 -1 -660 45 -247 152 -462 407 -815 294 -407 400 -616 444 -875 3 -19 15
-77 25 -129 11 -52 20 -108 21 -125 1 -30 1 -30 9 -6 5 15 8 18 9 8 2 -25 50
-58 86 -58 52 0 56 -14 34 -125 -32 -161 -22 -260 26 -279 28 -10 106 -7 200
10 50 9 123 16 164 17 65 0 76 -2 92 -22 11 -13 19 -33 19 -45 0 -29 15 -50
30 -41 64 39 287 852 315 1147 1 10 -2 18 -5 18 -9 0 -24 -37 -45 -115 -39
-140 -106 -226 -203 -260 -75 -25 -179 -30 -245 -11 -299 87 -771 635 -1069
1242 -133 269 -175 415 -195 674 -13 168 -6 595 11 700 2 14 7 50 11 80 18
156 41 250 66 272 25 21 59 15 127 -23 55 -31 67 -25 28 14 -53 53 -92 132
-111 223 -10 49 35 92 168 160 152 78 388 207 434 238 l37 26 12 -39 c13 -44
59 -113 101 -153 35 -34 104 -46 157 -28 55 18 135 86 157 133 20 46 25 102 9
112 -6 4 -8 10 -5 15 11 18 -26 82 -76 130 l-52 50 38 15 c20 9 51 15 69 13
27 -3 35 -11 58 -58 15 -30 35 -79 44 -107 9 -29 20 -53 25 -53 5 0 13 -19 20
-42 22 -82 -10 -309 -56 -397 -24 -48 -75 -101 -110 -115 -18 -8 -56 -17 -86
-20 -132 -16 -264 -78 -380 -181 -50 -44 -90 -98 -124 -168 -26 -53 -41 -69
-103 -112 l-73 -50 5 -44 c13 -97 119 -275 238 -398 71 -74 125 -107 235 -143
98 -32 155 -39 206 -28 39 10 105 -13 237 -80 212 -108 222 -118 291 -307 57
-154 79 -275 74 -414 -2 -64 -5 -125 -8 -137 -31 -128 -90 -244 -165 -326 -30
-32 -51 -58 -48 -58 4 0 44 24 89 53 45 29 118 76 161 103 l80 50 2 114 c4
196 65 328 202 431 45 34 61 41 105 42 59 2 54 21 41 -140 -5 -57 -3 -83 4
-83 6 0 27 27 47 60 69 114 100 112 194 -15 35 -47 66 -85 71 -85 23 0 15 39
-26 121 -26 50 -47 98 -49 107 -3 25 51 92 188 232 165 169 220 246 274 388
34 91 27 131 -39 239 -34 55 -55 80 -61 74 -6 -6 -9 -58 -8 -121 2 -136 -17
-218 -61 -255 -16 -14 -69 -45 -117 -70 -82 -43 -134 -89 -134 -122 0 -7 -16
-27 -36 -45 l-36 -33 34 38 c60 64 29 40 -64 -51 -50 -48 -134 -121 -188 -162
-114 -86 -135 -90 -237 -44 -135 60 -184 184 -137 345 14 46 26 64 64 95 26
22 66 57 88 79 22 22 27 29 10 15 l-30 -25 29 32 c16 18 33 30 38 27 5 -3 15
-1 23 6 10 9 25 5 64 -15 47 -23 52 -24 58 -9 4 10 -3 33 -15 55 -27 47 -27
48 4 84 14 17 38 45 53 63 27 31 29 32 112 33 60 0 104 -5 154 -21 125 -38
126 -38 72 13 -39 38 -58 48 -108 59 -34 7 -64 18 -66 25 -8 20 17 44 67 65
53 23 95 18 158 -19 24 -13 46 -22 49 -19 8 8 -56 103 -84 126 -20 15 -34 18
-64 14 -39 -7 -53 6 -26 23 19 11 124 146 170 216 43 65 68 79 133 71 29 -3
51 -1 60 7 12 10 21 6 50 -22 19 -18 44 -55 56 -81 12 -26 23 -46 25 -44 12
11 -46 101 -105 163 -76 82 -139 115 -215 114 -53 0 -43 -10 -116 118 -31 55
-101 141 -101 124 0 -4 13 -21 29 -38 42 -42 102 -146 96 -164 -2 -9 -7 -31
-10 -49 -9 -53 -50 -154 -103 -254 -28 -51 -55 -110 -62 -131 -9 -30 -28 -50
-88 -94 -43 -31 -98 -77 -124 -101 l-47 -45 -63 7 c-35 3 -88 9 -119 12 -32 4
-65 2 -75 -4 -15 -9 -14 -12 17 -27 47 -25 96 -63 103 -81 5 -14 -61 -232 -85
-279 -15 -30 -93 -79 -198 -124 -112 -48 -132 -52 -69 -12 50 32 123 130 133
177 l5 29 -11 -30 c-13 -31 -63 -109 -88 -135 -20 -21 -64 -50 -77 -50 -5 0
-43 31 -82 69 l-73 68 9 41 c6 23 7 43 5 46 -3 2 0 21 7 41 22 66 87 87 199
66 47 -10 100 -58 101 -93 0 -10 4 -18 9 -18 23 0 -8 49 -67 107 -130 127
-232 157 -307 91 -39 -34 -68 -84 -80 -135 -8 -41 -16 -41 -39 -3 -16 28 -20
97 -5 110 3 3 30 43 61 90 31 47 72 105 91 129 20 26 33 51 29 59 -3 9 -1 13
5 9 13 -8 53 40 125 148 61 92 240 444 232 456 -3 5 -1 9 5 9 6 0 20 19 32 42
19 38 23 40 34 24 7 -10 21 -45 31 -78 20 -66 23 -68 119 -89 33 -7 89 -24
125 -37 112 -41 121 -43 111 -23 -5 9 -22 30 -38 45 -58 59 -103 84 -192 106
-81 20 -89 24 -85 43 2 12 14 31 26 43 24 22 97 54 124 54 9 0 68 -20 131 -45
64 -25 120 -44 125 -43 5 2 -34 46 -87 97 -91 88 -95 94 -64 88 27 -5 30 -4
16 4 -10 6 -32 8 -50 4 -25 -5 -29 -4 -17 5 12 8 6 10 -27 8 -23 -1 -45 1 -49
5 -13 12 -44 8 -85 -14 -23 -11 -43 -18 -46 -16 -2 3 3 26 11 52 9 25 14 51
11 56 -4 5 -1 9 4 9 6 0 10 3 9 8 -1 4 2 27 6 52 29 175 -2 308 -94 397 -44
42 -114 85 -160 97 -14 4 7 -9 46 -28 41 -20 88 -54 111 -79 44 -47 44 -47 28
-215 -6 -69 -15 -98 -51 -173 -26 -53 -46 -110 -49 -141 -7 -55 -41 -144 -124
-320 -51 -110 -53 -111 -126 -124 -46 -8 -75 -21 -75 -33 0 -5 14 -24 31 -42
27 -29 30 -38 25 -71 -13 -82 -65 -207 -123 -297 -102 -159 -185 -279 -200
-293 -24 -22 -117 -48 -168 -48 -24 0 -63 11 -94 26 -103 52 -168 141 -175
241 -3 54 31 196 57 236 11 17 73 54 176 106 183 91 288 159 359 235 94 99
117 182 97 351 -7 58 -63 275 -74 290 -5 5 -11 21 -14 34 -5 22 -4 23 31 17
32 -5 205 -60 255 -81 32 -13 18 14 -35 66 -57 57 -98 77 -205 103 -71 18 -71
18 -63 45 13 45 26 65 70 104 49 45 77 47 160 12 33 -14 64 -25 69 -25 18 0
19 28 1 68 -18 39 -18 42 -2 43 33 2 -64 18 -113 18 -35 1 -46 -2 -35 -9 12
-7 10 -9 -7 -7 -12 0 -20 4 -17 8 2 4 -5 5 -16 2 -11 -3 -20 -8 -20 -12 0 -3
-13 -6 -28 -7 -37 -1 -119 -42 -141 -70 -13 -16 -24 -20 -50 -16 -50 7 -155
-40 -238 -106 -39 -31 -95 -77 -125 -101 -54 -43 -55 -44 -144 -48 -105 -4
-124 7 -125 73 -2 59 -21 80 -114 124 -46 22 -88 48 -93 58 -19 37 -21 87 -6
160 21 105 20 103 171 231 114 97 118 123 24 171 -114 57 -157 128 -148 244 6
85 35 129 126 196 38 28 71 56 74 64 8 19 -12 34 -127 97 -134 73 -149 94
-150 207 0 96 6 147 28 237 18 71 65 210 95 279 12 27 19 51 16 54 -3 3 5 12
17 19 13 7 19 12 13 13 -5 0 -23 -9 -40 -19z m-178 -388 c-3 -10 -5 -4 -5 12
0 17 2 24 5 18 2 -7 2 -21 0 -30z m-70 -930 c-2 -16 -4 -5 -4 22 0 28 2 40 4
28 2 -13 2 -35 0 -50z m931 -734 c28 -28 55 -64 61 -80 l10 -29 -26 14 c-44
22 -78 4 -108 -59 -46 -99 -103 -117 -205 -68 -30 14 -58 26 -61 25 -4 -1 -9
10 -12 24 -2 13 -2 22 1 19 3 -2 33 19 66 48 84 74 197 157 211 157 7 0 35
-23 63 -51z m-981 -186 c-3 -10 -5 -4 -5 12 0 17 2 24 5 18 2 -7 2 -21 0 -30z
m-10 -180 c-2 -16 -4 -3 -4 27 0 30 2 43 4 28 2 -16 2 -40 0 -55z m1866 -100
c-7 -2 -19 -2 -25 0 -7 3 -2 5 12 5 14 0 19 -2 13 -5z m-591 -845 c-7 -7 -12
-8 -12 -2 0 6 3 14 7 17 3 4 9 5 12 2 2 -3 -1 -11 -7 -17z m-219 -328 c-3 -11
-9 -17 -15 -14 -5 3 -4 12 3 20 16 19 18 18 12 -6z"/>
<path d="M2854 6433 c3 -10 6 -35 8 -56 1 -21 6 -40 10 -43 4 -2 5 5 3 17 -2
12 -5 39 -7 60 -1 22 -6 39 -11 39 -4 0 -6 -8 -3 -17z"/>
<path d="M2874 6205 c0 -66 1 -92 3 -57 2 34 2 88 0 120 -2 31 -3 3 -3 -63z"/>
<path d="M2862 6054 c-1 -13 0 -24 2 -24 7 0 14 40 7 44 -4 3 -8 -6 -9 -20z"/>
<path d="M2858 5959 c-1 -34 0 -63 5 -66 4 -2 7 25 7 61 0 36 -2 66 -4 66 -2
0 -6 -27 -8 -61z"/>
<path d="M2859 5878 c-4 -10 -5 -87 0 -83 5 6 9 85 4 85 -2 0 -4 -1 -4 -2z"/>
<path d="M2850 5764 c0 -8 5 -12 10 -9 6 4 8 11 5 16 -9 14 -15 11 -15 -7z"/>
<path d="M2853 5670 c0 -41 2 -58 4 -37 2 20 2 54 0 75 -2 20 -4 3 -4 -38z"/>
<path d="M2850 5570 c0 -11 2 -20 4 -20 2 0 6 9 9 20 3 11 1 20 -4 20 -5 0 -9
-9 -9 -20z"/>
<path d="M2850 5524 c0 -8 5 -12 10 -9 6 4 8 11 5 16 -9 14 -15 11 -15 -7z"/>
<path d="M2850 5481 c0 -6 4 -12 8 -15 5 -3 9 1 9 9 0 8 -4 15 -9 15 -4 0 -8
-4 -8 -9z"/>
<path d="M2854 5435 c3 -23 12 -26 13 -5 1 11 -2 20 -7 20 -4 0 -7 -7 -6 -15z"/>
<path d="M2863 5330 c0 -41 2 -58 4 -37 2 20 2 54 0 75 -2 20 -4 3 -4 -38z"/>
<path d="M2871 5198 c0 -32 2 -58 7 -58 4 0 6 19 4 43 -5 70 -10 76 -11 15z"/>
<path d="M2878 5060 c2 -22 6 -40 8 -40 2 0 4 18 4 40 0 22 -3 40 -8 40 -4 0
-6 -18 -4 -40z"/>
<path d="M2890 4974 c0 -21 4 -45 9 -53 5 -8 7 5 4 35 -7 61 -13 70 -13 18z"/>
<path d="M2902 4880 c-1 -14 3 -43 7 -65 6 -26 9 -31 9 -15 1 14 -3 43 -7 65
-6 26 -9 31 -9 15z"/>
<path d="M4179 4205 c35 -19 75 -44 88 -57 12 -12 23 -17 23 -12 0 15 -143
104 -167 104 -4 0 21 -16 56 -35z"/>
<path d="M4841 3575 c-1 -25 11 -44 107 -163 73 -90 76 -96 105 -205 47 -179
56 -236 54 -347 -2 -102 -3 -108 -37 -163 -19 -31 -92 -114 -163 -184 -129
-127 -158 -167 -172 -233 -12 -55 -6 -184 14 -320 11 -69 18 -162 16 -207 -5
-167 -85 -265 -345 -423 -76 -47 -148 -107 -164 -139 -8 -14 -17 -62 -20 -106
-13 -161 -79 -364 -220 -675 -36 -80 -68 -160 -72 -177 -7 -36 -8 -35 76 -36
39 0 208 12 255 18 17 2 46 6 65 9 43 6 160 18 177 19 15 0 16 3 43 142 28
147 157 661 215 855 25 85 47 162 49 170 10 39 51 149 66 180 10 20 34 81 53
135 37 106 53 190 72 370 4 33 8 71 10 85 2 14 7 45 10 70 14 100 37 193 81
321 57 168 85 285 89 369 6 121 -36 235 -115 320 -23 25 -70 79 -103 120 -34
41 -64 77 -67 80 -19 16 -63 83 -70 107 -6 21 -8 23 -9 8z"/>
<path d="M2835 3548 c-37 -14 -80 -56 -90 -88 -4 -14 -7 -27 -6 -29 2 -2 -2
-7 -8 -10 -6 -4 -17 -38 -25 -76 -14 -64 -13 -72 3 -100 13 -24 25 -30 57 -33
56 -4 76 21 82 99 4 52 9 65 38 96 l34 36 87 -6 c85 -5 88 -6 120 -41 41 -45
43 -87 7 -142 -50 -77 -172 -164 -209 -150 -8 3 -15 0 -15 -6 0 -31 126 30
182 89 90 96 99 150 36 219 -60 65 -156 131 -209 143 -52 12 -46 12 -84 -1z"/>
<path d="M2740 3206 c0 -17 122 -106 145 -106 6 0 -10 12 -35 26 -25 14 -60
39 -77 57 -18 17 -33 28 -33 23z"/>
<path d="M3818 2767 c-15 -7 -36 -23 -46 -37 -21 -26 -62 -140 -62 -169 0 -45
129 -151 182 -151 62 0 162 78 192 151 18 43 8 68 -50 123 -80 75 -163 107
-216 83z m236 -116 c33 -31 37 -52 16 -98 -31 -67 -119 -133 -178 -133 -16 0
-51 15 -78 33 -42 28 -46 32 -26 35 27 4 52 49 52 92 0 35 23 85 42 94 7 3 43
4 80 3 54 -2 72 -7 92 -26z"/>
<path d="M2710 680 c0 -5 5 -10 11 -10 5 0 7 5 4 10 -3 6 -8 10 -11 10 -2 0
-4 -4 -4 -10z"/>
<path d="M2718 608 c5 -89 9 -97 11 -20 0 39 -2 72 -6 72 -5 0 -7 -24 -5 -52z"/>
<path d="M2722 485 c0 -16 2 -22 5 -12 2 9 2 23 0 30 -3 6 -5 -1 -5 -18z"/>
<path d="M2723 424 c0 -17 2 -22 7 -13 5 6 6 18 3 26 -8 19 -10 16 -10 -13z"/>
<path d="M2720 380 c0 -5 5 -10 11 -10 5 0 7 5 4 10 -3 6 -8 10 -11 10 -2 0
-4 -4 -4 -10z"/>
<path d="M2721 344 c0 -11 3 -14 6 -6 3 7 2 16 -1 19 -3 4 -6 -2 -5 -13z"/>
<path d="M2723 270 c0 -30 2 -43 4 -27 2 15 2 39 0 55 -2 15 -4 2 -4 -28z"/>
</g>
</svg>
